<svg width="13" height="22" viewBox="0 0 13 22" fill="none" xmlns="http://www.w3.org/2000/svg">
<path d="M11.7125 10.2877L1.7125 0.287696C1.56792 0.152036 1.38788 0.0600848 1.19321 0.0224791C0.99855 -0.0151266 0.797216 0.00315034 0.612505 0.0751958C0.430504 0.151697 0.275219 0.280361 0.166221 0.444971C0.0572224 0.609581 -0.000612701 0.802771 4.8951e-06 1.0002V21.0002C-0.000612701 21.1976 0.0572224 21.3908 0.166221 21.5554C0.275219 21.72 0.430504 21.8487 0.612505 21.9252C0.735854 21.9742 0.867288 21.9996 1 22.0002C1.26555 21.9991 1.52055 21.8962 1.7125 21.7127L11.7125 11.7127C11.9003 11.5231 12.0056 11.267 12.0056 11.0002C12.0056 10.7333 11.9003 10.4773 11.7125 10.2877Z" fill="black" fill-opacity="0.6"/>
</svg>
